<svg width="751" height="751" viewBox="0 0 751 751" fill="none" xmlns="http://www.w3.org/2000/svg">
<g clip-path="url(#clip0_311_67)">
<path d="M751 0H0V751H751V0Z" fill="#C3EDFF"/>
<mask id="mask0_311_67" style="mask-type:luminance" maskUnits="userSpaceOnUse" x="0" y="0" width="751" height="751">
<path d="M751 0H0V751H751V0Z" fill="white"/>
</mask>
<g mask="url(#mask0_311_67)">
<path d="M751 514.72H0V780.544H751V514.72Z" fill="#4CC3EE"/>
</g>
<mask id="mask1_311_67" style="mask-type:luminance" maskUnits="userSpaceOnUse" x="0" y="0" width="751" height="751">
<path d="M751 0H0V751H751V0Z" fill="white"/>
</mask>
<g mask="url(#mask1_311_67)">
<path d="M244.225 524.754H-13.5029V532.729H244.225V524.754Z" fill="#77DAF8"/>
</g>
<mask id="mask2_311_67" style="mask-type:luminance" maskUnits="userSpaceOnUse" x="0" y="0" width="751" height="751">
<path d="M751 0H0V751H751V0Z" fill="white"/>
</mask>
<g mask="url(#mask2_311_67)">
<path d="M47.3278 549.221H-17.2882C-21.8393 549.221 -25.5342 545.526 -25.5342 540.975C-25.5342 536.424 -21.8393 532.729 -17.2882 532.729H47.3278C51.8789 532.729 55.5738 536.424 55.5738 540.975C55.5738 545.526 51.8789 549.221 47.3278 549.221Z" fill="#77DAF8"/>
</g>
<mask id="mask3_311_67" style="mask-type:luminance" maskUnits="userSpaceOnUse" x="0" y="0" width="751" height="751">
<path d="M751 0H0V751H751V0Z" fill="white"/>
</mask>
<g mask="url(#mask3_311_67)">
<path d="M751 601.551H0V780.544H751V601.551Z" fill="#00A6E7"/>
</g>
<mask id="mask4_311_67" style="mask-type:luminance" maskUnits="userSpaceOnUse" x="0" y="0" width="751" height="751">
<path d="M751 0H0V751H751V0Z" fill="white"/>
</mask>
<g mask="url(#mask4_311_67)">
<path d="M358.903 624.832H0V591.037H358.903C368.23 591.037 375.8 598.607 375.8 607.934C375.8 617.262 368.23 624.832 358.903 624.832Z" fill="#4CC3EE"/>
</g>
<mask id="mask5_311_67" style="mask-type:luminance" maskUnits="userSpaceOnUse" x="0" y="0" width="751" height="751">
<path d="M751 0H0V751H751V0Z" fill="white"/>
</mask>
<g mask="url(#mask5_311_67)">
<path d="M413.38 647.632H767.897C775.227 647.632 781.175 641.684 781.175 634.355C781.175 627.025 775.227 621.077 767.897 621.077H413.38C406.05 621.077 400.103 627.025 400.103 634.355C400.103 641.684 406.05 647.632 413.38 647.632Z" fill="#4CC3EE"/>
</g>
<mask id="mask6_311_67" style="mask-type:luminance" maskUnits="userSpaceOnUse" x="0" y="0" width="751" height="751">
<path d="M751 0H0V751H751V0Z" fill="white"/>
</mask>
<g mask="url(#mask6_311_67)">
<path d="M301.632 601.551H-0.450415C-5.22677 601.551 -9.08691 597.691 -9.08691 592.915C-9.08691 588.138 -5.22677 584.278 -0.450415 584.278H301.647C306.423 584.278 310.283 588.138 310.283 592.915C310.268 597.691 306.408 601.551 301.632 601.551Z" fill="#77DAF8"/>
</g>
<mask id="mask7_311_67" style="mask-type:luminance" maskUnits="userSpaceOnUse" x="0" y="0" width="751" height="751">
<path d="M751 0H0V751H751V0Z" fill="white"/>
</mask>
<g mask="url(#mask7_311_67)">
<path d="M584.203 584.278H437.442C435.58 584.278 434.063 582.761 434.063 580.898C434.063 579.036 435.58 577.519 437.442 577.519H584.203C586.065 577.519 587.582 579.036 587.582 580.898C587.582 582.761 586.065 584.278 584.203 584.278Z" fill="#77DAF8"/>
</g>
<mask id="mask8_311_67" style="mask-type:luminance" maskUnits="userSpaceOnUse" x="0" y="0" width="751" height="751">
<path d="M751 0H0V751H751V0Z" fill="white"/>
</mask>
<g mask="url(#mask8_311_67)">
<path d="M790.563 537.431H691.866C689.268 537.431 687.165 535.328 687.165 532.729C687.165 530.131 689.268 528.028 691.866 528.028H790.563C793.161 528.028 795.264 530.131 795.264 532.729C795.264 535.328 793.161 537.431 790.563 537.431Z" fill="#77DAF8"/>
</g>
<mask id="mask9_311_67" style="mask-type:luminance" maskUnits="userSpaceOnUse" x="0" y="0" width="751" height="751">
<path d="M751 0H0V751H751V0Z" fill="white"/>
</mask>
<g mask="url(#mask9_311_67)">
<path d="M180.165 654.602H-13.3077C-17.5733 654.602 -21.043 651.147 -21.043 646.866C-21.043 642.601 -17.5884 639.131 -13.3077 639.131H180.165C184.431 639.131 187.9 642.586 187.9 646.866C187.9 651.147 184.431 654.602 180.165 654.602Z" fill="#4CC3EE"/>
</g>
<mask id="mask10_311_67" style="mask-type:luminance" maskUnits="userSpaceOnUse" x="0" y="0" width="751" height="751">
<path d="M751 0H0V751H751V0Z" fill="white"/>
</mask>
<g mask="url(#mask10_311_67)">
<path d="M785.861 591.037H651.988C650.125 591.037 648.608 589.52 648.608 587.658C648.608 585.795 650.125 584.278 651.988 584.278H785.861C787.724 584.278 789.241 585.795 789.241 587.658C789.241 589.52 787.724 591.037 785.861 591.037Z" fill="#00A6E7"/>
</g>
<mask id="mask11_311_67" style="mask-type:luminance" maskUnits="userSpaceOnUse" x="0" y="0" width="751" height="751">
<path d="M751 0H0V751H751V0Z" fill="white"/>
</mask>
<g mask="url(#mask11_311_67)">
<path d="M145.379 618.644H11.5055C9.643 618.644 8.12598 617.127 8.12598 615.264C8.12598 613.402 9.643 611.885 11.5055 611.885H145.379C147.241 611.885 148.758 613.402 148.758 615.264C148.758 617.127 147.241 618.644 145.379 618.644Z" fill="#00A6E7"/>
</g>
<mask id="mask12_311_67" style="mask-type:luminance" maskUnits="userSpaceOnUse" x="0" y="0" width="751" height="751">
<path d="M751 0H0V751H751V0Z" fill="white"/>
</mask>
<g mask="url(#mask12_311_67)">
<path d="M862.163 683.876H-35.4321V792.786H862.163V683.876Z" fill="#009CE7"/>
</g>
<mask id="mask13_311_67" style="mask-type:luminance" maskUnits="userSpaceOnUse" x="0" y="0" width="751" height="751">
<path d="M751 0H0V751H751V0Z" fill="white"/>
</mask>
<g mask="url(#mask13_311_67)">
<path d="M888.238 754.259H167.593C154.616 754.259 144.087 743.745 144.087 730.753C144.087 717.776 154.601 707.247 167.593 707.247H888.238C901.215 707.247 911.744 717.761 911.744 730.753C911.729 743.73 901.215 754.259 888.238 754.259Z" fill="#00A6E7"/>
</g>
<mask id="mask14_311_67" style="mask-type:luminance" maskUnits="userSpaceOnUse" x="0" y="0" width="751" height="751">
<path d="M751 0H0V751H751V0Z" fill="white"/>
</mask>
<g mask="url(#mask14_311_67)">
<path d="M444.907 669.126H314.834C312.176 669.126 310.028 666.978 310.028 664.32C310.028 661.661 312.176 659.513 314.834 659.513H444.907C447.566 659.513 449.714 661.661 449.714 664.32C449.714 666.978 447.566 669.126 444.907 669.126Z" fill="#009CE7"/>
</g>
<mask id="mask15_311_67" style="mask-type:luminance" maskUnits="userSpaceOnUse" x="0" y="0" width="751" height="751">
<path d="M751 0H0V751H751V0Z" fill="white"/>
</mask>
<g mask="url(#mask15_311_67)">
<path d="M106.837 757.759H-48.3192C-53.6213 757.759 -57.917 753.463 -57.917 748.161C-57.917 742.859 -53.6213 738.563 -48.3192 738.563H106.837C112.139 738.563 116.435 742.859 116.435 748.161C116.45 753.463 112.139 757.759 106.837 757.759Z" fill="#00A6E7"/>
</g>
<path d="M170.913 561.523H76.6021C74.6345 561.523 73.0273 559.931 73.0273 557.948C73.0273 555.98 74.6195 554.373 76.6021 554.373H170.913C172.88 554.373 174.487 555.965 174.487 557.948C174.487 559.916 172.88 561.523 170.913 561.523Z" fill="#00A6E7"/>
<path d="M486.918 334.285C486.978 334.285 487.038 334.285 487.113 334.27C496.861 333.85 507.916 332.047 513.278 323.876C517.439 317.538 516.808 309.247 515.291 301.827C514.089 295.969 511.611 289.105 512.512 283.067C513.128 278.921 516.508 275.512 515.636 271.036C515.006 267.792 512.587 265.764 509.704 264.457C509.433 264.337 504.987 262.895 504.957 263.12C504.957 263.12 506.564 252.336 499.91 248.911C492.34 245.036 437.457 254.709 434.048 260.086C431.96 263.376 434.844 270.901 435.565 274.22C437.082 281.189 440.386 288.414 434.573 294.242C431.599 297.216 427.724 299.319 425.321 302.758C420.395 309.848 423.819 320.287 430.563 325.679C437.307 331.071 446.304 332.573 454.896 333.399C465.53 334.45 476.239 334.736 486.918 334.285Z" fill="url(#paint0_linear_311_67)"/>
<path d="M497.177 463.127C497.748 457.705 496.636 454.67 494.699 447.596C491.004 434.078 484.079 423.819 484.079 423.819L435.505 419.929C435.505 419.929 419.599 454.52 420.5 463.127H497.177Z" fill="#4F464B"/>
<path d="M400.208 332.948C400.103 334.495 399.622 337.53 399.231 339.768C401.875 340.203 404.669 340.503 407.357 340.609C407.748 336.733 408.634 332.393 410.046 329.779C413.651 323.155 417.721 312.972 417.21 312.011C416.7 311.079 410.106 318.634 410.016 320.767C409.896 318.995 409.25 311.305 408.334 306.829C407.192 301.271 405.239 298.027 404.654 298.613C404.053 299.198 406.426 313.152 406.426 313.152C406.426 313.152 402.341 301.902 400.778 301.482C399.216 301.061 402.491 312.521 403.182 315.69C403.182 315.69 399.006 306.033 397.774 305.837C396.543 305.642 400.673 317.793 400.839 320.046C400.839 320.046 397.204 311.56 396.272 311.47C395.356 311.395 400.839 324.027 400.208 332.948Z" fill="#F9C0A2"/>
<path d="M407.357 340.609C407.057 346.181 407.342 354.217 407.928 362.763C408.995 378.023 408.739 386.615 408.739 386.615C408.739 386.615 418.968 368.921 423.684 355.779C428.4 342.636 437.563 337.259 447.776 338.175C447.776 338.175 435.039 370.468 432.756 383.055C430.473 395.642 410.692 414.597 407.418 415.018C404.143 415.438 394.861 410.692 393.96 386.615C393.299 368.831 397.204 350.717 399.217 339.782C401.965 340.158 404.609 340.308 407.357 340.609Z" fill="#FCC05A"/>
<path d="M440.522 357.551L428.205 360.57C428.205 360.57 420.154 367.299 418.352 377.993C417.256 384.422 419.914 394.545 422.197 401.59C427.199 395.627 431.75 388.703 432.771 383.055C433.838 377.122 437.232 366.803 440.522 357.551Z" fill="#ED9D50"/>
<path d="M476.615 339.287L484.936 340.804C484.936 340.804 491.68 349.395 491.515 373.082L479.844 422.873C479.844 422.873 458.696 430.669 438.554 420.981L432.141 383.235C432.141 383.235 440.582 381.748 448.032 368.306C455.076 355.599 447.776 338.175 447.776 338.175L458.651 337.905L476.615 339.287Z" fill="#FCC05A"/>
<path d="M426.839 362.868C434.213 349.756 446.124 340.413 446.124 340.413L447.777 338.175C452.988 342.471 459.582 345.115 466.341 345.505C472.83 345.881 479.394 344.183 484.951 340.804L501.894 345.655C501.894 345.655 493.092 349.05 492.927 373.502L484.095 423.819C484.095 423.819 456.623 429.933 435.52 419.929L430.714 383.971C430.699 383.971 419.043 376.747 426.839 362.868Z" fill="#FCC05A"/>
<path d="M510.244 405.72C505.243 409.265 500.061 412.524 494.699 415.513C494.323 404.384 491.409 373.668 491.409 373.668C491.409 373.668 488.991 360.014 492.521 352.7C496.05 345.385 500.571 345.205 500.571 345.205C510.229 348.99 514.104 362.042 510.034 389.544C508.968 396.693 509.944 401.094 510.244 405.72Z" fill="#FCC05A"/>
<path d="M458.696 342.291C461.444 343.883 463.607 344.709 466.701 344.784C471.298 344.904 472.965 342.216 474.497 341.81L489.382 307.429L462.451 319.566L462.391 320.707L458.696 342.291Z" fill="#F9C0A2"/>
<path d="M466.101 331.597C469.045 331.251 471.673 330.425 474.377 329.178C476.93 328.007 479.378 326.685 481.721 325.153L489.397 307.429L462.466 319.566L462.406 320.707L460.453 332.107C462.331 331.927 464.223 331.807 466.101 331.597Z" fill="#F39B7E"/>
<path d="M498.499 289.12C498.499 289.12 508.397 287.002 507.105 298.102C505.813 309.217 497.778 309.427 495.405 309.908C495.405 309.908 490.974 329.689 466.581 327.797C442.174 325.904 446.184 307.009 446.364 294.482C446.544 281.955 445.148 260.192 461.114 258.599C477.215 256.977 499.911 258.044 498.499 289.12Z" fill="#F9C0A2"/>
<path d="M460.393 295.504C460.123 295.504 459.867 295.383 459.687 295.158C459.131 294.422 458.335 293.987 457.449 293.926C456.563 293.881 455.722 294.212 455.076 294.873C454.73 295.218 454.175 295.233 453.829 294.888C453.484 294.542 453.469 293.987 453.814 293.641C454.806 292.62 456.172 292.094 457.554 292.169C458.936 292.259 460.228 292.95 461.084 294.092C461.384 294.482 461.294 295.038 460.919 295.323C460.768 295.443 460.573 295.504 460.393 295.504Z" fill="#332927"/>
<path d="M477.921 296.6C477.651 296.6 477.396 296.48 477.215 296.255C476.66 295.519 475.864 295.083 474.977 295.023C474.091 294.963 473.25 295.308 472.604 295.969C472.259 296.315 471.703 296.33 471.358 295.984C471.012 295.639 470.997 295.083 471.343 294.738C472.334 293.716 473.701 293.175 475.082 293.266C476.464 293.356 477.756 294.047 478.612 295.188C478.913 295.579 478.822 296.134 478.447 296.42C478.282 296.54 478.102 296.6 477.921 296.6Z" fill="#332927"/>
<path d="M470.592 263.691C465.95 262.775 461.039 262.805 456.563 264.352C453.679 265.343 450.976 267.011 448.858 269.189C447.476 272.928 446.86 277.314 446.575 281.685L446.71 283.443C451.892 282.361 456.383 278.456 458.185 273.484C459.327 276.548 460.904 279.372 463.097 281.79C463.532 280.844 464.358 280.093 465.32 279.733C465.094 277.885 465.154 275.993 465.515 274.16C466.161 278.246 470.021 281.265 474.076 282.091C478.132 282.917 482.337 282.001 486.303 280.814C485.762 284.509 487.73 288.444 491.019 290.232C492.656 284.193 490.733 277.48 486.693 272.688C482.653 267.882 476.735 264.908 470.592 263.691Z" fill="url(#paint1_linear_311_67)"/>
<path d="M472.589 309.562C472.755 309.697 472.439 310.388 471.583 311.23C471.163 311.65 470.592 312.071 469.901 312.461C469.21 312.837 468.399 313.167 467.513 313.377C466.627 313.588 465.755 313.648 464.959 313.633C464.178 313.603 463.472 313.482 462.902 313.302C461.73 312.942 461.204 312.476 461.264 312.266C461.324 312.026 462.075 312.116 463.097 312.131C463.623 312.146 464.253 312.131 464.929 312.086C465.605 312.026 466.356 311.92 467.122 311.74C467.888 311.56 468.594 311.305 469.225 311.049C469.856 310.779 470.412 310.509 470.877 310.253C471.823 309.773 472.409 309.397 472.589 309.562Z" fill="#F4856E"/>
<path d="M463.712 306.633C463.712 306.738 463.472 306.859 463.037 306.799C462.601 306.738 461.97 306.408 461.505 305.747C461.264 305.417 461.069 305.026 460.949 304.561C460.829 304.065 460.799 303.599 460.844 303.074C460.934 302.052 461.354 301.046 461.775 300.13C463.487 296.42 465.199 293.581 465.62 293.776C466.041 293.971 464.989 297.126 463.292 300.821C462.871 301.737 462.511 302.548 462.361 303.284C462.21 304.02 462.286 304.621 462.511 305.146C462.931 306.183 463.727 306.393 463.712 306.633Z" fill="#F39B7E"/>
<path d="M470.817 286.807C470.697 286.627 471.162 285.981 472.274 285.35C473.355 284.719 475.158 284.178 477.11 284.374C479.123 284.569 480.745 285.425 481.706 286.251C482.187 286.672 482.517 287.047 482.713 287.363C482.893 287.663 482.938 287.873 482.863 287.948C482.788 288.039 482.577 287.979 482.262 287.828C481.962 287.678 481.556 287.468 481.045 287.227C480.054 286.732 478.582 286.176 476.975 286.026C475.293 285.861 473.806 286.131 472.724 286.431C471.643 286.732 470.952 287.002 470.817 286.807Z" fill="#332927"/>
<path d="M461.384 286.386C461.219 286.552 460.588 286.146 459.582 285.665C458.576 285.17 457.164 284.614 455.482 284.464C453.874 284.314 452.327 284.584 451.261 284.869C450.72 285.02 450.27 285.14 449.954 285.23C449.624 285.32 449.414 285.335 449.353 285.23C449.293 285.14 449.384 284.944 449.624 284.674C449.879 284.404 450.27 284.088 450.825 283.773C451.922 283.142 453.679 282.601 455.692 282.797C457.645 282.977 459.297 283.848 460.243 284.674C461.204 285.515 461.55 286.251 461.384 286.386Z" fill="#332927"/>
<path d="M503.921 294.077C504.777 297.021 503.561 300.115 502.374 302.938C502.029 303.78 501.638 304.666 500.887 305.176C500.136 305.687 498.904 305.612 498.514 304.786C498.138 303.99 498.694 303.104 499.13 302.338C499.565 301.572 499.821 300.43 499.085 299.964C498.739 299.739 498.289 299.754 497.928 299.574C497.147 299.153 497.147 298.027 497.342 297.171C497.628 295.969 498.063 294.813 498.664 293.731C499.25 292.68 500.166 291.583 501.383 291.613C502.659 291.628 503.576 292.86 503.921 294.077Z" fill="url(#paint2_linear_311_67)"/>
<path d="M478.282 333.099C478.282 333.099 466.281 343.462 463.502 343.012C460.724 342.561 460.258 333.219 460.258 333.219C460.258 333.219 452.342 335.367 451.141 336.748C449.939 338.13 447.236 347.548 449.353 349.756C451.471 351.979 461.039 344.078 462.541 345.25C464.043 346.421 471.568 355.764 472.98 355.614C474.377 355.448 483.434 342.396 482.803 338.341C482.157 334.315 478.282 333.099 478.282 333.099Z" fill="white"/>
<path d="M498.544 263.721C493.392 256.331 483.899 253.297 474.948 252.366C468.324 251.675 461.234 251.961 455.602 255.52C446.605 261.198 444.006 274.31 442.369 284.839C449.729 284.269 456.097 279.192 458.891 269.113C459.988 273.139 462.09 277.99 465.064 281.535C465.695 281.265 466.341 280.994 466.957 280.694C465.38 276.864 464.689 272.147 465.109 268.828C466.326 272.853 469.48 284.975 487.97 280.964C487.414 283.638 487.654 288.985 492.671 290.757C492.206 294.242 492.206 297.171 491.965 300.4C492.371 300.7 492.776 301.001 493.197 301.286C496.832 296.104 501.533 284.419 501.533 284.419C503.26 277.434 502.644 269.609 498.544 263.721Z" fill="url(#paint3_linear_311_67)"/>
<path d="M278.576 338.521C257.698 308.661 240.155 268.558 239.524 255.64C238.893 242.723 238.713 244.541 240.29 240.305C241.852 236.069 248.356 236.76 246.223 232.089C244.09 227.418 239.99 236.4 237.662 236.61C235.333 236.82 239.088 214.501 237.256 210.625C235.424 206.75 231.909 209.574 233.291 216.303C234.673 223.032 233.666 228.259 233.666 228.259C233.666 228.259 229.115 212.999 226.952 211.121C224.789 209.244 223.137 213.359 224.249 216.603C225.36 219.863 229.626 227.057 229.881 230.302C229.881 230.302 220.914 219.277 216.378 216.543C211.842 213.81 211.557 218.586 213.329 220.734C215.087 222.867 224.579 227.914 226.682 232.63C226.682 232.63 216.664 225.811 212.638 227.012C208.598 228.229 209.649 231.849 211.692 233.201C213.735 234.552 217.52 233.501 221.11 233.801C224.699 234.102 224.129 234.597 223.978 240.155C223.828 245.712 222.792 249.212 227.643 249.768C232.48 250.338 233.501 262.114 232.99 288.039C232.435 316.261 251.39 326.73 256.316 347.037C261.198 367.359 278.576 338.521 278.576 338.521Z" fill="#F9C0A2"/>
<path d="M328.547 336.133C346.481 304.41 359.624 268.753 359.023 255.851C358.422 242.933 358.768 244.721 356.8 240.665C354.832 236.595 348.434 237.902 350.116 233.05C351.798 228.184 356.725 236.745 359.083 236.745C361.426 236.73 355.568 214.861 357.01 210.836C358.467 206.81 362.222 209.274 361.501 216.108C360.78 222.942 362.252 228.049 362.252 228.049C362.252 228.049 365.331 212.428 367.299 210.355C369.267 208.282 371.309 212.218 370.513 215.552C369.717 218.901 366.142 226.472 366.218 229.731C366.218 229.731 374.088 217.895 378.339 214.741C382.589 211.587 383.325 216.318 381.778 218.616C380.231 220.914 371.264 226.832 369.627 231.744C369.627 231.744 378.939 223.993 383.085 224.819C387.215 225.645 386.525 229.34 384.617 230.887C382.709 232.435 378.849 231.744 375.305 232.389C371.76 233.02 372.376 233.471 373.052 238.983C373.728 244.496 375.094 247.89 370.333 248.911C365.572 249.933 362.628 264.743 364.445 290.622C366.383 318.499 354.532 321.879 351.573 342.561C348.599 363.199 328.547 336.133 328.547 336.133Z" fill="#F9C0A2"/>
<path d="M273.739 438.719C273.739 438.719 267.04 463.322 267.506 464.749C267.957 466.161 348.254 458.11 348.254 458.11L337.965 432.546L273.739 438.719Z" fill="#4F464B"/>
<path d="M288.97 342.441C286.296 341.705 283.668 340.759 281.1 339.497L266.936 316.366C251.525 326.189 247.47 342.366 247.47 342.366L269.008 378.339L267.506 441.843C302.683 451.757 345.385 438.719 345.385 438.719L336.448 401.56C341.24 381.598 341.54 372.03 341.465 368.411L359.894 337.004C359.894 337.004 354.322 321.278 338.04 312.972C339.407 313.663 326.144 337.559 324.282 339.572C315.195 349.425 300.37 345.565 288.97 342.441Z" fill="#625A7D"/>
<path d="M311.875 350.612C311.32 351.258 310.584 351.753 309.803 352.129C307.7 353.15 305.221 353.391 302.968 352.775C300.43 352.084 298.192 350.462 297.321 348.013C296.87 346.737 296.45 345.43 296.014 344.138C292.815 334.631 289.601 325.138 286.401 315.63L311.53 329.584L311.5 330.695C311.5 330.695 311.935 335.667 312.131 338.055C312.401 341.239 314.113 347.383 312.176 350.176C312.086 350.357 311.98 350.492 311.875 350.612Z" fill="#F9C0A2"/>
<path d="M307.024 340.969C304.185 340.398 301.722 339.377 299.198 337.965C296.825 336.628 294.542 335.141 292.409 333.474L286.401 315.66L311.53 329.614L311.5 330.725L312.461 341.93C310.659 341.6 308.826 341.33 307.024 340.969Z" fill="#F9A788"/>
<path d="M275.422 298.988C275.422 298.988 266.365 296.915 267.626 307.73C268.888 318.529 276.699 318.754 279.012 319.22C279.012 319.22 283.322 338.461 307.054 336.628C330.801 334.781 326.895 316.396 326.73 304.215C326.55 292.019 327.917 270.856 312.371 269.294C296.705 267.717 274.055 268.753 275.422 298.988Z" fill="#F9C0A2"/>
<path d="M312.386 269.294C299.033 267.957 280.619 268.513 276.308 287.408L286.702 294.332C287.678 293.386 288.67 292.454 289.646 291.508C294.678 292.349 300.085 290.472 303.389 286.582C306.033 288.234 309.352 287.873 311.71 285.831C314.684 286.837 317.733 288.279 320.857 288.594C322.645 288.775 324.477 288.684 326.22 288.279C325.213 278.951 322.119 270.27 312.386 269.294Z" fill="#F9A788"/>
<path d="M309.833 316.036C309.818 315.811 310.599 315.6 311.004 314.594C311.215 314.083 311.305 313.513 311.155 312.792C311.019 312.071 310.674 311.29 310.253 310.388C308.601 306.784 307.58 303.719 307.985 303.524C308.391 303.344 310.058 306.108 311.725 309.712C312.146 310.614 312.536 311.59 312.627 312.581C312.672 313.077 312.657 313.543 312.536 314.023C312.416 314.474 312.221 314.864 311.996 315.18C311.545 315.811 310.944 316.141 310.509 316.201C310.073 316.246 309.848 316.126 309.833 316.036Z" fill="#F9A788"/>
<path d="M302.924 294.452C302.788 294.647 302.113 294.377 301.061 294.092C299.995 293.806 298.553 293.536 296.916 293.701C295.353 293.851 293.927 294.392 292.965 294.873C292.47 295.113 292.064 295.323 291.779 295.458C291.478 295.594 291.283 295.654 291.193 295.579C291.118 295.503 291.163 295.293 291.343 295.008C291.538 294.707 291.854 294.332 292.319 293.926C293.251 293.115 294.828 292.289 296.78 292.094C298.673 291.914 300.43 292.439 301.482 293.04C302.578 293.656 303.044 294.287 302.924 294.452Z" fill="#3E3533"/>
<path d="M312.101 293.476C311.95 293.341 312.281 292.62 313.227 291.824C314.143 291.028 315.766 290.171 317.658 289.991C319.626 289.796 321.323 290.322 322.389 290.937C322.93 291.238 323.321 291.553 323.561 291.809C323.786 292.064 323.876 292.259 323.816 292.349C323.756 292.439 323.546 292.424 323.23 292.349C322.915 292.259 322.494 292.139 321.954 291.989C320.917 291.703 319.415 291.433 317.853 291.583C316.216 291.733 314.849 292.274 313.858 292.755C312.882 293.25 312.266 293.641 312.101 293.476Z" fill="#3E3533"/>
<path d="M300.67 304.455C300.745 306.213 299.394 307.7 297.636 307.79C295.879 307.865 294.392 306.513 294.302 304.756C294.227 302.998 295.579 301.512 297.336 301.421C299.108 301.331 300.595 302.698 300.67 304.455Z" fill="#3E3533"/>
<path d="M318.829 303.629C318.905 305.387 317.553 306.874 315.795 306.964C314.038 307.039 312.551 305.687 312.461 303.93C312.386 302.172 313.738 300.685 315.495 300.595C317.267 300.505 318.754 301.872 318.829 303.629Z" fill="#3E3533"/>
<path d="M299.559 315.916C304.065 318.079 309.848 318.785 314.745 317.763C313.663 321.789 312.371 324.612 306.574 324.267C301.812 323.981 298.943 320.091 299.559 315.916Z" fill="#CB4453"/>
<path d="M299.544 316.126C300.04 316.276 300.52 316.486 300.971 316.712C304.32 318.379 307.174 320.992 309.172 324.162C308.421 324.282 307.565 324.327 306.558 324.267C301.902 323.981 299.063 320.226 299.544 316.126Z" fill="#DD5664"/>
<path d="M312.972 318.049C312.747 318.95 312.566 319.671 312.431 319.896C312.236 320.241 305.612 321.488 299.574 318.199C299.454 317.463 299.409 316.862 299.559 315.916C303.059 317.568 309.052 318.424 312.972 318.049Z" fill="white"/>
<path d="M270.72 303.81C269.894 306.663 271.066 309.682 272.222 312.431C272.568 313.242 272.943 314.113 273.679 314.609C274.415 315.105 275.602 315.03 275.992 314.233C276.368 313.467 275.812 312.596 275.392 311.86C274.971 311.124 274.716 310.013 275.437 309.547C275.767 309.337 276.203 309.352 276.563 309.157C277.329 308.751 277.329 307.655 277.134 306.814C276.864 305.642 276.428 304.516 275.842 303.464C275.271 302.428 274.37 301.376 273.199 301.406C271.952 301.421 271.051 302.638 270.72 303.81Z" fill="#F9A788"/>
<path d="M275.422 298.988C275.422 298.988 279.147 301.722 280.168 307.775H282.902V297.321C282.902 297.321 291.178 295.038 288.038 282.872C284.899 270.705 272.568 282.797 272.568 282.797L275.422 298.988Z" fill="#3E3533"/>
<path d="M658.897 547.719H82.5798C79.4706 547.719 76.9473 545.196 76.9473 542.087C76.9473 538.978 79.4706 536.454 82.5798 536.454H658.912C662.021 536.454 664.545 538.978 664.545 542.087C664.545 545.196 662.006 547.719 658.897 547.719Z" fill="#00A6E7"/>
<path d="M255.28 466.161H181.862C179.414 466.161 177.431 464.178 177.431 461.73V448.542C177.431 443.916 181.201 440.146 185.812 440.146H251.315C255.941 440.146 259.711 443.916 259.711 448.542V461.73C259.711 464.178 257.728 466.161 255.28 466.161ZM186.293 457.299H250.849V449.023H186.293V457.299Z" fill="#E15A16"/>
<path d="M462.811 466.161H389.393C386.945 466.161 384.962 464.178 384.962 461.73V448.542C384.962 443.916 388.732 440.146 393.344 440.146H458.846C463.472 440.146 467.242 443.916 467.242 448.542V461.73C467.242 464.178 465.244 466.161 462.811 466.161ZM393.809 457.299H458.365V449.023H393.809V457.299Z" fill="#E15A16"/>
<path d="M91.9073 542.072H644.959C657.29 533.15 665.311 518.656 665.311 502.269C665.311 475.143 643.321 453.153 616.195 453.153H120.671C93.5445 453.153 71.5552 475.143 71.5552 502.269C71.5552 518.656 79.5909 533.15 91.9073 542.072Z" fill="#F37123"/>
<path d="M649.48 466.161C640.723 458.095 629.038 453.153 616.195 453.153H120.671C107.828 453.153 96.1429 458.095 87.3862 466.161H649.48Z" fill="#FF8332"/>
<path d="M91.9074 542.072H644.959C657.29 533.15 665.311 518.656 665.311 502.269C665.311 497.658 664.665 493.197 663.479 488.976H73.4028C72.2162 493.212 71.5703 497.658 71.5703 502.269C71.5553 518.656 79.591 533.15 91.9074 542.072Z" fill="#F6E6D6"/>
<path d="M71.6606 499.46H665.221C665.086 497.027 664.77 494.639 664.29 492.311H72.5919C72.1112 494.624 71.7958 497.027 71.6606 499.46Z" fill="#E2C5AF"/>
<path d="M91.9674 542.072H644.914C653.791 535.658 660.459 526.376 663.493 515.547H73.3877C76.4217 526.376 83.0906 535.658 91.9674 542.072Z" fill="#F1DBC3"/>
<path d="M603.609 488.976H595.843C590.692 511.852 568.642 529.095 542.297 529.095C515.952 529.095 493.888 511.852 488.751 488.976H479.649C474.497 511.852 452.448 529.095 426.102 529.095C399.757 529.095 377.693 511.852 372.556 488.976H363.454C358.302 511.852 336.253 529.095 309.908 529.095C283.563 529.095 261.498 511.852 256.361 488.976H247.259C242.107 511.852 220.058 529.095 193.713 529.095C167.368 529.095 145.303 511.852 140.167 488.976H133.212C138.409 515.637 163.568 535.914 193.728 535.914C220.584 535.914 243.459 519.827 251.825 497.492C260.191 519.827 283.067 535.914 309.923 535.914C336.778 535.914 359.654 519.827 368.02 497.492C376.386 519.827 399.262 535.914 426.117 535.914C452.973 535.914 475.849 519.827 484.215 497.492C492.581 519.827 515.456 535.914 542.312 535.914C568.567 535.914 591.007 520.533 599.824 498.979C600.68 495.54 602.377 492.341 603.609 488.976Z" fill="#D7AF91"/>
<path d="M666.062 492.296H70.8193C69.1821 492.296 67.8604 490.974 67.8604 489.337C67.8604 487.699 69.1821 486.378 70.8193 486.378H666.062C667.699 486.378 669.021 487.699 669.021 489.337C669.006 490.974 667.684 492.296 666.062 492.296Z" fill="#63281F"/>
<path d="M644.944 542.072C647.347 540.33 649.6 538.392 651.643 536.259H99.958V542.072H644.944Z" fill="#E2C5AF"/>
<path d="M251.78 478.747C251.78 505.138 225.766 526.526 193.683 526.526C161.6 526.526 135.585 505.138 135.585 478.747" stroke="#63281F" stroke-width="4" stroke-miterlimit="10" stroke-linecap="round" stroke-linejoin="round"/>
<path d="M367.99 478.747C367.99 505.138 341.976 526.526 309.893 526.526C277.81 526.526 251.795 505.138 251.795 478.747" stroke="#63281F" stroke-width="4" stroke-miterlimit="10" stroke-linecap="round" stroke-linejoin="round"/>
<path d="M484.2 478.747C484.2 505.138 458.185 526.526 426.102 526.526C394.02 526.526 368.005 505.138 368.005 478.747" stroke="#63281F" stroke-width="4" stroke-miterlimit="10" stroke-linecap="round" stroke-linejoin="round"/>
<path d="M600.41 478.747C600.41 505.138 574.395 526.526 542.312 526.526C510.229 526.526 484.215 505.138 484.215 478.747" stroke="#63281F" stroke-width="4" stroke-miterlimit="10" stroke-linecap="round" stroke-linejoin="round"/>
<path d="M224.039 408.289C224.039 411.713 217.971 416.114 213.75 418.217C214.216 422.708 206.12 431.735 206.195 436.256C226.757 421.747 243.069 416.084 245.232 413.846C250.038 408.904 252.456 405.976 247.785 403.347C243.114 400.719 248.957 395.416 244.676 393.96C240.395 392.488 246.118 385.533 241.056 385.879C235.995 386.224 232.014 395.897 232.014 395.897C232.014 395.897 224.114 361.952 224.039 408.289Z" fill="#F9C0A2"/>
<path d="M176.966 425.547L176.876 429.872C176.876 429.872 184.776 426.853 194.945 424.33C208.042 421.086 223.378 414.297 223.378 414.297C223.378 414.297 229.956 418.157 215.958 429.242C201.959 440.311 173.541 456.548 164.499 455.241C155.457 453.934 154.045 424.165 154.045 424.165L176.966 425.547Z" fill="#DD7E52"/>
<path d="M163.388 358.437C168.074 361.096 179.474 426.057 179.474 426.057L218.992 407.447C218.992 407.447 228.034 415.048 228.259 427.589C228.259 427.589 174.127 457.84 167.683 458.095C161.24 458.365 159.813 377.813 159.813 377.813L163.388 358.437Z" fill="white"/>
<path d="M163.388 358.437C168.074 361.096 179.474 426.057 179.474 426.057L218.992 407.447C218.992 407.447 228.034 415.048 228.259 427.589C228.259 427.589 174.127 457.84 167.683 458.095C161.24 458.365 159.813 377.813 159.813 377.813L163.388 358.437Z" fill="white"/>
<path d="M81.8594 288.94C83.4815 296.57 88.8737 315.39 88.8737 315.39L93.6651 309.923L91.2619 286.386L81.8594 288.94Z" fill="#452925"/>
<path d="M114.062 557.948L114.798 553.202L126.363 492.356L130.254 491.274C130.254 491.274 131.11 539.518 131.455 557.948H162.201C163.147 538.122 163.418 447.205 163.418 447.205L92.208 454.385C92.208 454.385 85.6592 538.001 85.0134 545.601C84.9082 546.923 84.5628 551.414 84.0972 557.948H114.062Z" fill="#63281F"/>
<path opacity="0.16" d="M90.2402 479.544C108.024 484.365 140.948 488.616 163.298 475.713C163.343 468.924 163.358 462.871 163.388 458.11L91.4418 464.358C91.1114 468.519 90.6908 473.746 90.2402 479.544Z" fill="#722F27"/>
<path d="M159.813 446.83C159.257 444.787 158.807 443.495 158.807 443.495L95.2871 446.109C95.2871 446.109 95.0618 447.401 94.7163 449.624C95.0317 450.059 95.2871 450.39 95.2871 450.39C123.615 461.955 144.147 461.97 159.813 446.83Z" fill="#330E00"/>
<path d="M81.2886 392.818L92.4184 433.732L86.7559 471.958C86.7559 471.958 137.043 491.079 168.6 470.471L162.111 385.068L81.2886 392.818Z" fill="white"/>
<path d="M158.236 354.622C164.98 357.461 170.447 365.422 162.141 385.053L159.242 445.463C159.242 445.463 162.472 454.776 160.429 456.743C144.763 471.928 124.216 471.928 95.8428 460.348C95.8428 460.348 94.3558 458.44 94.1606 457.674C93.1242 453.574 96.5938 442.114 96.5938 442.114L80.7327 392.803C80.7327 392.803 65.0969 371.52 75.4456 363.814C91.7273 351.678 131.56 343.402 158.236 354.622Z" fill="white"/>
<path d="M98.3359 353.511C98.3359 353.511 110.757 384.933 128.541 380.652C146.31 376.371 141.954 350.236 141.954 350.236L151.792 352.354C151.792 352.354 158.551 359.984 160.984 381.042C163.418 402.1 166.857 462.451 168.6 470.441C170.342 478.447 129.112 488.075 107.934 479.994C86.7555 471.913 86.6053 463.592 86.9207 451.066C87.2211 438.539 83.9468 414.282 83.9468 414.282L89.339 395.627C89.339 395.627 101.911 375.245 91.5018 354.968L98.3359 353.511Z" fill="#F37123"/>
<path d="M119.845 363.694C120.731 362.357 121.467 360.931 122.038 359.444C123.885 360.6 125.718 361.757 127.565 362.913C129.007 363.814 130.524 364.746 132.221 364.791C135.856 364.911 136.322 360.991 136.367 358.242L136.727 349.801C136.712 349.756 136.697 349.711 136.667 349.681C136.217 349.651 135.39 349.545 134.985 349.515L107.453 352.564C107.558 352.895 106.447 355.193 106.642 355.839C107.453 358.227 112.17 368.441 115.399 367.99C116.285 367.87 116.991 367.224 117.592 366.563C118.433 365.677 119.184 364.716 119.845 363.694Z" fill="#DFDCD8"/>
<path d="M168.615 474.256C173.466 472.845 167.698 447.22 164.379 421.476C157.289 429.932 151.627 439.59 147.752 449.924C144.087 448.017 140.527 445.914 137.088 443.646C138.199 441.573 139.731 438.914 140.993 436.857C133.062 430.909 126.934 423.068 120.791 415.258C120.671 421.777 120.581 427.574 120.566 431.63C114.497 426.057 110.142 419.854 105.35 413.17C109.481 424.225 113.626 435.28 117.757 446.334C109.661 436.827 98.0205 415.108 88.1974 399.622L85.4938 408.95L83.9468 434.799L85.8093 468.188C87.131 472.409 89.9698 476.134 95.9478 479.679C112.635 484.034 146.34 488.781 168.615 474.256Z" fill="#E15A16"/>
<path d="M128.136 354.157C125.462 355.704 119.95 356.5 116.946 356.575C112.485 356.695 114.287 354.081 112.8 353.691L98.3511 320.316L124.501 332.107L124.561 333.219L128.136 354.157Z" fill="#F9C0A2"/>
<path d="M120.941 343.778C118.073 343.447 115.534 342.636 112.906 341.435C110.427 340.308 108.039 339.001 105.771 337.529L98.3213 320.316L124.471 332.107L124.531 333.219L126.424 344.288C124.606 344.108 122.774 343.988 120.941 343.778Z" fill="#F9A788"/>
<path d="M109.135 345.25C109.135 345.25 119.649 355.313 122.338 354.878C125.027 354.442 126.438 344.288 126.438 344.288C126.438 344.288 136.036 347.052 137.208 348.389C138.379 349.726 135.511 362.868 134.249 363.514C131.59 364.851 123.585 355.914 122.128 357.055C120.671 358.197 116.54 365.827 115.189 365.677C113.822 365.527 103.007 354.848 103.608 350.912C104.224 346.992 109.135 345.25 109.135 345.25Z" fill="white"/>
<path d="M140.452 285.35C140.452 285.35 143.366 297.351 140.197 310.493C137.028 323.651 137.478 286.386 137.478 286.386L140.452 285.35Z" fill="#452925"/>
<path d="M88.9337 302.563C88.9337 302.563 79.9067 300.505 81.1533 311.289C82.4 322.074 90.2104 322.284 92.5085 322.75C92.5085 322.75 96.8042 341.945 120.491 340.113C144.177 338.265 140.287 319.926 140.122 307.76C139.942 295.594 141.308 274.475 125.808 272.928C110.157 271.351 87.5519 272.388 88.9337 302.563Z" fill="#F9C0A2"/>
<path d="M116.781 308.376C116.601 308.526 116.12 308.195 115.384 307.835C114.633 307.474 113.612 307.084 112.38 307.069C111.238 307.054 110.142 307.414 109.406 307.76C109.03 307.925 108.715 308.09 108.49 308.195C108.249 308.301 108.069 308.346 107.994 308.27C107.919 308.195 107.919 308.03 108.039 307.76C108.159 307.489 108.4 307.159 108.76 306.814C109.496 306.123 110.788 305.432 112.44 305.447C112.755 305.447 113.221 305.507 113.566 305.582C113.927 305.657 114.272 305.777 114.573 305.912C115.189 306.183 115.684 306.543 116.045 306.889C116.781 307.625 116.946 308.255 116.781 308.376Z" fill="#452925"/>
<path d="M123.269 319.55C123.254 319.325 124.02 319.115 124.441 318.109C124.651 317.613 124.741 317.027 124.591 316.306C124.456 315.6 124.11 314.804 123.69 313.918C122.038 310.328 121.016 307.264 121.422 307.084C121.827 306.904 123.495 309.652 125.147 313.257C125.567 314.158 125.958 315.12 126.048 316.111C126.093 316.607 126.078 317.072 125.958 317.553C125.838 318.003 125.643 318.379 125.417 318.694C124.967 319.325 124.366 319.656 123.93 319.716C123.495 319.776 123.269 319.656 123.269 319.55Z" fill="#E78E6B"/>
<path d="M116.375 300.31C116.12 300.685 115.339 300.595 114.302 300.475C113.776 300.415 113.191 300.355 112.545 300.31C112.214 300.295 111.884 300.28 111.539 300.295C111.373 300.295 111.178 300.295 111.028 300.31C110.893 300.31 110.667 300.34 110.442 300.355C110.277 300.37 110.112 300.4 109.946 300.415C109.766 300.43 109.601 300.475 109.436 300.49C109.09 300.55 108.775 300.625 108.459 300.7C107.829 300.851 107.258 301.031 106.762 301.196C106.267 301.346 105.816 301.496 105.485 301.541C105.125 301.602 104.84 301.587 104.689 301.421C104.539 301.256 104.509 300.986 104.629 300.625C104.765 300.235 105.05 299.784 105.5 299.304C106.417 298.342 108.054 297.351 110.217 297.141C110.427 297.126 110.637 297.111 110.938 297.111C111.223 297.111 111.448 297.126 111.689 297.141C112.169 297.186 112.635 297.276 113.056 297.396C113.912 297.636 114.633 297.982 115.173 298.372C116.255 299.138 116.615 299.949 116.375 300.31Z" fill="#452925"/>
<path d="M125.522 299.904C125.207 299.604 125.417 298.748 126.333 297.771C126.784 297.291 127.43 296.81 128.226 296.405C128.631 296.209 129.052 296.029 129.533 295.894C129.773 295.834 129.998 295.774 130.269 295.714C130.554 295.654 130.764 295.639 130.974 295.609C133.137 295.398 134.925 296.059 136.006 296.825C136.547 297.216 136.907 297.606 137.118 297.967C137.313 298.312 137.328 298.583 137.208 298.763C137.088 298.958 136.817 299.018 136.457 299.033C136.111 299.048 135.661 299.003 135.135 298.943C134.609 298.883 134.024 298.823 133.378 298.778C133.062 298.763 132.717 298.748 132.371 298.763C132.206 298.763 132.026 298.763 131.846 298.778C131.68 298.793 131.515 298.793 131.35 298.808C131.125 298.838 130.899 298.853 130.764 298.883C130.614 298.898 130.419 298.928 130.269 298.958C129.923 299.018 129.608 299.093 129.292 299.168C128.661 299.318 128.091 299.499 127.595 299.664C126.589 299.994 125.853 300.22 125.522 299.904Z" fill="#452925"/>
<path d="M132.236 307.174C132.311 308.931 130.96 310.418 129.202 310.493C127.445 310.569 125.958 309.217 125.883 307.459C125.808 305.702 127.16 304.215 128.917 304.14C130.674 304.065 132.161 305.417 132.236 307.174Z" fill="#452925"/>
<path d="M113.011 319.43C117.501 321.593 123.269 322.299 128.151 321.278C127.069 325.288 125.778 328.112 119.995 327.766C115.264 327.496 112.395 323.606 113.011 319.43Z" fill="#CB4453"/>
<path d="M112.995 319.656C113.491 319.806 113.972 320.016 114.422 320.241C117.757 321.909 120.611 324.522 122.608 327.661C121.857 327.781 121.001 327.827 120.01 327.766C115.339 327.496 112.515 323.741 112.995 319.656Z" fill="#DD5664"/>
<path d="M126.378 321.578C126.153 322.479 125.973 323.185 125.838 323.426C125.642 323.771 119.034 325.018 113.011 321.728C112.89 320.992 112.845 320.392 112.996 319.445C116.51 321.083 122.473 321.939 126.378 321.578Z" fill="white"/>
<path d="M84.2321 307.369C83.406 310.223 84.5776 313.227 85.7341 315.976C86.0796 316.787 86.4551 317.643 87.1761 318.154C87.912 318.649 89.0986 318.574 89.4741 317.778C89.8496 317.012 89.2939 316.141 88.8733 315.405C88.4528 314.669 88.1974 313.557 88.9184 313.092C89.2488 312.882 89.6844 312.897 90.0449 312.716C90.8109 312.311 90.8109 311.214 90.6006 310.373C90.3303 309.202 89.8947 308.075 89.3239 307.039C88.7532 306.017 87.867 304.966 86.6804 304.981C85.4638 304.981 84.5776 306.183 84.2321 307.369Z" fill="#F9A788"/>
<path d="M114.062 557.948L114.798 553.202L115.143 551.384C114.543 553.487 113.912 555.695 113.251 557.948H114.062Z" fill="url(#paint4_linear_311_67)"/>
<path d="M85.5241 557.948C85.2687 555.139 85.0134 552.195 84.743 549.191C84.5778 551.354 84.3675 554.358 84.0972 557.948H85.5241Z" fill="url(#paint5_linear_311_67)"/>
<path d="M135.195 557.948C133.889 547.839 131.816 531.257 130.81 523.252C131.05 536.169 131.29 549.897 131.44 557.948H135.195Z" fill="url(#paint6_linear_311_67)"/>
<path d="M88.9337 302.563C88.9337 302.563 92.6436 305.296 93.665 311.335C95.4974 312.927 98.3362 311.62 98.3362 309.202V303.434C98.3362 303.434 104.645 298.628 101.52 286.476C98.3813 274.34 86.936 293.04 86.936 293.04L88.9337 302.563Z" fill="#452925"/>
<path d="M77.8787 302.518C77.8787 302.518 71.0145 276.458 87.0859 265.524C106.627 252.216 135.751 255.971 141.954 283.412L77.8787 302.518Z" fill="#E15A16"/>
<path d="M76.512 304.936L146.58 286.191L145.168 280.784L75.1602 301.211L76.512 304.936Z" fill="#F37123"/>
<path d="M129.052 335.502C121.692 328.292 112.605 335.502 112.605 335.502C100.018 333.099 96.3835 320.632 96.3835 320.632V300.896C96.3835 300.896 91.2467 293.551 87.3265 294.993C83.4063 296.435 77.4433 299.964 78.9904 311.335C80.5224 322.705 90.706 323.621 90.706 323.621C94.2507 331.161 105.14 340.849 119.379 341.029C133.603 341.209 137.493 331.717 137.493 331.717C133.228 333.82 129.052 335.502 129.052 335.502ZM91.5772 321.503C86.7708 322.374 82.0845 317.868 81.1983 311.71C80.3122 305.552 83.6616 301.106 88.9336 303.074C93.74 304.876 96.3836 320.632 91.5772 321.503Z" fill="#452925"/>
<path d="M139.611 291.914C139.476 290.637 139.281 289.375 139.055 288.144L101.701 297.847L139.611 291.914Z" fill="#F9A788"/>
<path d="M120.656 286.401C123.449 285.59 125.747 284.824 128.541 284.013C124.621 273.965 116.57 265.599 106.687 261.288C112.665 268.783 118.162 277.149 120.656 286.401Z" fill="#D04E16"/>
<path d="M89.8347 265.539C80.5824 272.598 76.4218 283.037 78.9902 295.804C84.2622 292.935 87.7469 288.699 90.105 283.172C92.4632 277.66 91.4869 270.39 89.8347 265.539Z" fill="#D04E16"/>
<path d="M72.6816 470.517C74.3038 467.122 79.1703 466.566 81.1079 463.337C82.2944 464.238 83.436 465.109 84.4723 465.875C88.0771 468.594 90.5554 470.426 91.0361 470.682C93.3041 471.943 102.466 471.568 102.962 477.636C102.962 477.636 105.59 480.625 107.813 483.494C110.021 486.348 101.835 486.693 101.775 490.193C101.715 493.692 95.8124 492.055 94.9563 495.6C94.0851 499.16 93.9349 498.859 90.976 498.949C88.0171 499.04 85.0431 496.817 84.5775 491.785C84.5775 491.785 78.4343 491.605 77.0525 486.152C77.0074 485.987 76.9774 485.807 76.9473 485.642C76.2714 481.331 77.3228 474.031 72.6816 470.517Z" fill="#F9C0A2"/>
<path d="M69.3925 474.887C77.4132 470.051 84.5176 458.485 84.5176 458.485L62.9489 425.652L86.7706 395.071L81.033 360.3C65.1568 368.005 31.4219 417.09 30.4456 428.731C30.1002 432.876 69.3925 474.887 69.3925 474.887Z" fill="white"/>
<path d="M576.633 561.523H670.943C672.911 561.523 674.518 559.931 674.518 557.948C674.518 555.98 672.926 554.373 670.943 554.373H576.633C574.665 554.373 573.058 555.965 573.058 557.948C573.058 559.916 574.665 561.523 576.633 561.523Z" fill="#00A6E7"/>
<path d="M669.141 288.94C667.519 296.57 662.127 315.39 662.127 315.39L657.335 309.923L659.739 286.386L669.141 288.94Z" fill="#452925"/>
<path d="M636.938 557.948L636.202 553.202L624.637 492.356L620.747 491.274C620.747 491.274 619.891 539.518 619.545 557.948H588.799C587.853 538.122 587.583 447.205 587.583 447.205L658.792 454.385C658.792 454.385 665.341 538.001 665.987 545.601C666.092 546.923 666.438 551.414 666.903 557.948H636.938Z" fill="#63281F"/>
<path d="M566.224 468.339C568.417 465.29 573.314 465.59 575.777 462.766C576.783 463.863 577.759 464.914 578.631 465.86C581.71 469.165 583.813 471.403 584.248 471.748C586.261 473.385 595.348 474.632 594.762 480.685C594.762 480.685 596.835 484.095 598.502 487.309C600.184 490.508 592.059 489.397 591.383 492.836C590.707 496.261 585.194 493.617 583.722 496.952C582.235 500.301 582.145 499.971 579.201 499.55C576.272 499.13 573.734 496.396 574.17 491.379C574.17 491.379 568.147 490.118 567.756 484.515C567.741 484.335 567.741 484.155 567.741 483.989C567.846 479.619 570.174 472.619 566.224 468.339Z" fill="#F9C0A2"/>
<path d="M562.214 472.064C570.955 468.714 579.997 458.591 579.997 458.591L564.557 422.468L593.305 391.451L592.779 354.637C575.807 359.429 535.012 408.484 532.024 419.779C530.942 423.804 562.214 472.064 562.214 472.064Z" fill="white"/>
<path opacity="0.16" d="M660.76 479.544C642.976 484.365 610.052 488.616 587.702 475.713C587.657 468.924 587.642 462.871 587.612 458.11L659.558 464.358C659.889 468.519 660.309 473.746 660.76 479.544Z" fill="#722F27"/>
<path d="M591.188 446.83C591.743 444.787 592.194 443.495 592.194 443.495L655.713 446.109C655.713 446.109 655.939 447.401 656.284 449.624C655.969 450.059 655.713 450.39 655.713 450.39C627.386 461.955 606.853 461.97 591.188 446.83Z" fill="#330E00"/>
<path d="M669.712 392.818L658.582 433.732L664.244 471.958C664.244 471.958 613.957 491.079 582.4 470.471L588.889 385.068L669.712 392.818Z" fill="white"/>
<path d="M592.764 354.622C586.02 357.461 580.553 365.422 588.859 385.053L591.758 445.463C591.758 445.463 588.529 454.776 590.571 456.743C606.237 471.928 626.785 471.928 655.157 460.348C655.157 460.348 656.644 458.44 656.84 457.674C657.876 453.574 654.406 442.114 654.406 442.114L670.268 392.803C670.268 392.803 685.903 371.52 675.555 363.814C659.273 351.678 619.44 343.402 592.764 354.622Z" fill="white"/>
<path d="M652.664 353.511C652.664 353.511 640.243 384.933 622.459 380.652C604.69 376.371 609.046 350.236 609.046 350.236L599.208 352.354C599.208 352.354 592.449 359.984 590.016 381.042C587.583 402.1 584.143 462.451 582.401 470.441C580.658 478.447 621.888 488.075 643.066 479.994C664.245 471.913 664.395 463.592 664.079 451.066C663.779 438.539 667.053 414.282 667.053 414.282L661.661 395.627C661.661 395.627 649.089 375.245 659.498 354.968L652.664 353.511Z" fill="#F37123"/>
<path d="M631.155 363.694C630.269 362.357 629.533 360.931 628.963 359.444C627.115 360.6 625.283 361.757 623.435 362.913C621.993 363.814 620.476 364.746 618.779 364.791C615.144 364.911 614.678 360.991 614.633 358.242L614.273 349.801C614.288 349.756 614.303 349.711 614.333 349.681C614.784 349.651 615.61 349.545 616.015 349.515L643.547 352.564C643.442 352.895 644.553 355.193 644.358 355.839C643.547 358.227 638.831 368.441 635.601 367.99C634.715 367.87 634.009 367.224 633.408 366.563C632.567 365.677 631.816 364.716 631.155 363.694Z" fill="#DFDCD8"/>
<path d="M582.386 474.256C577.534 472.845 583.302 447.22 586.621 421.476C593.711 429.932 599.373 439.59 603.248 449.924C606.913 448.017 610.473 445.914 613.913 443.646C612.801 441.573 611.269 438.914 610.007 436.857C617.938 430.909 624.066 423.068 630.209 415.258C630.329 421.777 630.419 427.574 630.435 431.63C636.503 426.057 640.858 419.854 645.65 413.17C641.519 424.225 637.374 435.28 633.243 446.334C641.339 436.827 652.98 415.108 662.803 399.622L665.506 408.95L667.053 434.799L665.191 468.188C663.869 472.409 661.03 476.134 655.052 479.679C638.365 484.034 604.66 488.781 582.386 474.256Z" fill="#E15A16"/>
<path d="M622.864 354.157C625.538 355.704 631.05 356.5 634.054 356.575C638.515 356.695 636.713 354.081 638.2 353.691L652.649 320.316L626.499 332.107L626.439 333.219L622.864 354.157Z" fill="#F9C0A2"/>
<path d="M630.059 343.778C632.928 343.447 635.466 342.636 638.095 341.435C640.573 340.308 642.961 339.001 645.229 337.529L652.679 320.316L626.529 332.107L626.469 333.219L624.577 344.288C626.394 344.108 628.227 343.988 630.059 343.778Z" fill="#F9A788"/>
<path d="M641.865 345.25C641.865 345.25 631.351 355.313 628.662 354.877C625.974 354.442 624.562 344.288 624.562 344.288C624.562 344.288 614.964 347.052 613.792 348.389C612.621 349.726 615.49 362.868 616.751 363.514C619.41 364.851 627.416 355.914 628.872 357.055C630.329 358.197 634.46 365.827 635.812 365.677C637.179 365.527 647.993 354.847 647.392 350.912C646.776 346.992 641.865 345.25 641.865 345.25Z" fill="white"/>
<path d="M610.548 285.35C610.548 285.35 607.634 297.351 610.804 310.493C613.973 323.651 613.522 286.386 613.522 286.386L610.548 285.35Z" fill="#452925"/>
<path d="M662.067 302.563C662.067 302.563 671.094 300.505 669.847 311.289C668.6 322.074 660.79 322.284 658.492 322.75C658.492 322.75 654.196 341.945 630.51 340.113C606.823 338.28 610.713 319.941 610.879 307.775C611.059 295.609 609.692 274.49 625.193 272.943C640.843 271.351 663.449 272.388 662.067 302.563Z" fill="#F9C0A2"/>
<path d="M627.731 319.55C627.746 319.325 626.98 319.115 626.559 318.109C626.349 317.613 626.259 317.027 626.409 316.306C626.544 315.6 626.89 314.804 627.31 313.918C628.962 310.328 629.984 307.264 629.578 307.084C629.173 306.904 627.505 309.652 625.853 313.257C625.433 314.158 625.042 315.12 624.952 316.111C624.907 316.607 624.922 317.072 625.042 317.553C625.162 318.003 625.358 318.379 625.583 318.694C626.034 319.325 626.634 319.656 627.07 319.716C627.505 319.776 627.731 319.656 627.731 319.55Z" fill="#E78E6B"/>
<path d="M634.625 300.31C634.881 300.685 635.662 300.595 636.698 300.475C637.224 300.415 637.81 300.355 638.455 300.31C638.786 300.295 639.116 300.28 639.462 300.295C639.627 300.295 639.822 300.295 639.972 300.31C640.108 300.31 640.333 300.34 640.558 300.355C640.723 300.37 640.889 300.4 641.054 300.415C641.234 300.43 641.399 300.475 641.565 300.49C641.91 300.55 642.226 300.625 642.541 300.7C643.172 300.851 643.743 301.031 644.238 301.196C644.734 301.346 645.184 301.496 645.515 301.541C645.875 301.602 646.161 301.587 646.311 301.421C646.461 301.256 646.491 300.986 646.371 300.625C646.236 300.235 645.95 299.784 645.5 299.304C644.584 298.342 642.946 297.351 640.784 297.141C640.573 297.126 640.363 297.111 640.063 297.111C639.777 297.111 639.552 297.126 639.312 297.141C638.831 297.186 638.365 297.276 637.945 297.396C637.089 297.636 636.368 297.982 635.827 298.372C634.746 299.138 634.385 299.949 634.625 300.31Z" fill="#452925"/>
<path d="M625.478 299.904C625.793 299.604 625.583 298.748 624.667 297.771C624.216 297.291 623.57 296.81 622.774 296.405C622.369 296.209 621.948 296.029 621.468 295.894C621.227 295.834 621.002 295.774 620.732 295.714C620.446 295.654 620.236 295.639 620.026 295.609C617.863 295.398 616.075 296.059 614.994 296.825C614.453 297.216 614.093 297.606 613.882 297.967C613.687 298.312 613.672 298.583 613.792 298.763C613.913 298.958 614.183 299.018 614.543 299.033C614.889 299.048 615.339 299.003 615.865 298.943C616.391 298.883 616.977 298.823 617.622 298.778C617.938 298.763 618.283 298.748 618.629 298.763C618.794 298.763 618.974 298.763 619.155 298.778C619.32 298.793 619.485 298.793 619.65 298.808C619.875 298.838 620.101 298.853 620.236 298.883C620.386 298.898 620.581 298.928 620.732 298.958C621.077 299.018 621.393 299.093 621.708 299.168C622.339 299.318 622.909 299.499 623.405 299.664C624.411 299.994 625.147 300.22 625.478 299.904Z" fill="#452925"/>
<path d="M618.764 307.174C618.689 308.931 620.041 310.418 621.798 310.493C623.556 310.569 625.043 309.217 625.118 307.459C625.193 305.702 623.841 304.215 622.084 304.14C620.326 304.065 618.839 305.417 618.764 307.174Z" fill="#452925"/>
<path d="M636.217 307.174C636.142 308.931 637.494 310.418 639.251 310.493C641.009 310.569 642.496 309.217 642.571 307.459C642.646 305.702 641.294 304.215 639.537 304.14C637.794 304.065 636.307 305.417 636.217 307.174Z" fill="#452925"/>
<path d="M637.99 319.43C633.499 321.593 627.731 322.299 622.85 321.278C623.931 325.288 625.223 328.112 631.005 327.766C635.737 327.496 638.606 323.606 637.99 319.43Z" fill="#CB4453"/>
<path d="M638.005 319.656C637.509 319.806 637.029 320.016 636.578 320.241C633.244 321.909 630.39 324.522 628.392 327.661C629.143 327.781 629.999 327.827 630.991 327.766C635.662 327.496 638.486 323.741 638.005 319.656Z" fill="#DD5664"/>
<path d="M624.622 321.578C624.847 322.479 625.028 323.185 625.163 323.426C625.358 323.771 631.967 325.018 637.99 321.728C638.11 320.992 638.155 320.392 638.005 319.445C634.49 321.082 628.527 321.939 624.622 321.578Z" fill="white"/>
<path d="M666.768 307.369C667.594 310.223 666.423 313.227 665.266 315.976C664.921 316.787 664.545 317.643 663.824 318.154C663.088 318.649 661.902 318.574 661.526 317.778C661.151 317.012 661.706 316.141 662.127 315.405C662.547 314.669 662.803 313.557 662.082 313.092C661.751 312.882 661.316 312.897 660.955 312.716C660.189 312.311 660.189 311.214 660.4 310.373C660.67 309.202 661.105 308.075 661.676 307.039C662.247 306.017 663.133 304.966 664.32 304.981C665.536 304.981 666.423 306.183 666.768 307.369Z" fill="#F9A788"/>
<path d="M636.938 557.948L636.202 553.202L635.857 551.384C636.458 553.487 637.089 555.695 637.749 557.948H636.938Z" fill="url(#paint7_linear_311_67)"/>
<path d="M665.477 557.948C665.732 555.139 665.987 552.195 666.258 549.191C666.423 551.354 666.633 554.358 666.903 557.948H665.477Z" fill="url(#paint8_linear_311_67)"/>
<path d="M615.805 557.948C617.112 547.839 619.185 531.257 620.191 523.252C619.951 536.169 619.71 549.897 619.56 557.948H615.805Z" fill="url(#paint9_linear_311_67)"/>
<path d="M662.067 302.563C662.067 302.563 658.357 305.296 657.335 311.335C655.503 312.927 652.664 311.62 652.664 309.202V303.434C652.664 303.434 646.356 298.628 649.48 286.476C652.619 274.34 664.064 293.04 664.064 293.04L662.067 302.563Z" fill="#452925"/>
<path d="M673.121 302.518C673.121 302.518 679.985 276.458 663.914 265.524C644.373 252.216 615.249 255.971 609.046 283.412L673.121 302.518Z" fill="#E15A16"/>
<path d="M674.488 304.936L604.42 286.191L605.832 280.784L675.84 301.211L674.488 304.936Z" fill="#F37123"/>
<path d="M613.507 331.717C613.507 331.717 617.382 341.209 631.621 341.029C645.845 340.849 656.749 331.146 660.294 323.621C660.294 323.621 670.478 322.705 672.01 311.335C673.542 299.964 667.594 296.435 663.674 294.993C659.753 293.551 654.617 300.896 654.617 300.896V320.632C654.617 320.632 650.982 333.099 638.395 335.502C638.395 335.502 629.308 328.292 621.948 335.502C621.948 335.502 617.773 333.82 613.507 331.717ZM662.051 303.074C667.339 301.091 670.673 305.552 669.787 311.71C668.901 317.868 664.214 322.359 659.408 321.503C654.617 320.632 657.26 304.876 662.051 303.074Z" fill="#452925"/>
<path d="M611.389 291.914C611.524 290.637 611.72 289.375 611.945 288.144L649.3 297.847L611.389 291.914Z" fill="#F9A788"/>
<path d="M630.344 286.401C627.551 285.59 625.253 284.824 622.459 284.013C626.379 273.965 634.43 265.599 644.313 261.288C638.335 268.783 632.838 277.149 630.344 286.401Z" fill="#D04E16"/>
<path d="M661.165 265.539C670.418 272.598 674.578 283.037 672.01 295.804C666.738 292.935 663.253 288.699 660.895 283.172C658.537 277.66 659.513 270.39 661.165 265.539Z" fill="#D04E16"/>
<path d="M678.318 470.517C676.696 467.122 671.83 466.566 669.892 463.337C668.705 464.238 667.564 465.109 666.528 465.875C662.923 468.594 660.444 470.426 659.964 470.682C657.696 471.943 648.534 471.568 648.038 477.636C648.038 477.636 645.409 480.625 643.186 483.494C640.979 486.348 649.164 486.693 649.225 490.193C649.285 493.692 655.187 492.055 656.044 495.6C656.915 499.16 657.065 498.859 660.024 498.949C662.983 499.04 665.957 496.817 666.422 491.785C666.422 491.785 672.566 491.605 673.947 486.152C673.993 485.987 674.023 485.807 674.053 485.642C674.728 481.331 673.677 474.031 678.318 470.517Z" fill="#F9C0A2"/>
<path d="M681.608 474.887C673.587 470.051 666.482 458.485 666.482 458.485L688.051 425.652L664.229 395.071L669.967 360.3C685.843 368.005 719.578 417.09 720.554 428.731C720.9 432.876 681.608 474.887 681.608 474.887Z" fill="white"/>
<path d="M336.358 264.397C335.952 262.985 334.405 262.009 332.828 261.919C334.66 260.191 335.141 257.353 333.955 255.19C332.768 253.027 330.004 251.705 327.406 252.066C323.606 252.576 321.127 256.046 317.583 257.383C314.699 258.464 311.41 258.044 308.436 257.187C302.713 255.55 297.711 253.447 291.613 254.709C289.03 255.25 286.551 256.316 284.419 257.803C283.352 258.554 282.376 259.395 281.505 260.342C281.264 260.612 279.492 263.241 279.402 263.241C277.464 263.06 275.722 262.76 273.83 263.286C271.021 264.052 268.482 265.779 267.161 268.197C265.839 270.6 265.884 273.679 267.536 275.902C259.741 278.696 261.123 288.249 268.858 293.566C267.551 294.512 267.04 296.27 267.626 297.696C268.212 299.123 269.879 300.115 271.531 300.025C274.025 299.889 276.443 299.289 278.471 300.64C279.447 295.684 282.075 293.836 283.052 288.88C286.792 290.457 290.952 291.448 294.873 290.322C298.793 289.195 302.232 286.687 304.32 283.427C307.384 284.854 310.689 285.38 313.467 283.503C317.072 285.095 321.353 285.32 325.123 284.118C326.655 283.638 328.142 282.887 329.118 281.7C330.094 280.514 330.019 278.831 329.253 277.51C332.648 275.977 334.195 272.598 333.849 269.339C334.225 269.128 334.585 268.903 334.901 268.618C335.907 267.626 336.748 265.779 336.358 264.397Z" fill="#3E3533"/>
<path d="M520.443 454.145C519.903 452.628 519.377 450.66 518.806 448.332C516.223 449.053 512.798 449.654 510.245 450.525C511.521 454.37 512.948 457.945 512.678 460.994C512.017 468.504 512.347 479.468 513.204 480.144C514.045 480.79 517.079 471.238 516.298 469.24C517.109 470.832 520.774 477.606 523.417 481.346C526.677 485.987 529.771 488.18 530.071 487.414C530.386 486.648 522.636 474.782 522.636 474.782C522.636 474.782 530.867 483.464 532.474 483.223C534.081 482.983 526.496 473.791 524.589 471.162C524.589 471.162 532.279 478.342 533.481 478.042C534.682 477.726 526.046 468.234 524.994 466.236C524.994 466.236 531.708 472.559 532.594 472.274C533.511 471.958 523.432 462.571 520.443 454.145Z" fill="#F9C0A2"/>
<path d="M494.699 415.528C494.774 421.116 510.259 450.525 510.259 450.525L518.821 448.332C518.821 448.332 516.883 430.323 515.441 421.702C513.999 413.08 510.244 405.735 510.244 405.735L494.699 415.528Z" fill="#FCC05A"/>
<path d="M751 0H0V154.361H751V0Z" fill="#D0F1FF"/>
<path d="M751 0H0V59.4191H751V0Z" fill="#DFF5FF"/>
</g>
<defs>
<linearGradient id="paint0_linear_311_67" x1="468.572" y1="339.648" x2="471.965" y2="255.493" gradientUnits="userSpaceOnUse">
<stop offset="0.00534759" stop-color="#332927"/>
<stop offset="0.5112" stop-color="#392F2D"/>
<stop offset="1" stop-color="#433B38"/>
</linearGradient>
<linearGradient id="paint1_linear_311_67" x1="469.097" y1="272.931" x2="469.097" y2="282.398" gradientUnits="userSpaceOnUse">
<stop stop-color="#F39B7E"/>
<stop offset="1" stop-color="#F39B7E" stop-opacity="0.6"/>
</linearGradient>
<linearGradient id="paint2_linear_311_67" x1="498.079" y1="299.955" x2="502.971" y2="297.215" gradientUnits="userSpaceOnUse">
<stop stop-color="#F39B7E"/>
<stop offset="1" stop-color="#F39B7E" stop-opacity="0.6"/>
</linearGradient>
<linearGradient id="paint3_linear_311_67" x1="470.549" y1="327.228" x2="473.484" y2="254.427" gradientUnits="userSpaceOnUse">
<stop offset="0.00534759" stop-color="#332927"/>
<stop offset="0.5112" stop-color="#392F2D"/>
<stop offset="1" stop-color="#433B38"/>
</linearGradient>
<linearGradient id="paint4_linear_311_67" x1="114.334" y1="547.324" x2="111.77" y2="677.247" gradientUnits="userSpaceOnUse">
<stop stop-color="#302624" stop-opacity="0.5"/>
<stop offset="0.9947" stop-color="#302624" stop-opacity="0"/>
</linearGradient>
<linearGradient id="paint5_linear_311_67" x1="85.0329" y1="546.746" x2="82.4687" y2="676.669" gradientUnits="userSpaceOnUse">
<stop stop-color="#302624" stop-opacity="0.5"/>
<stop offset="0.9947" stop-color="#302624" stop-opacity="0"/>
</linearGradient>
<linearGradient id="paint6_linear_311_67" x1="132.87" y1="547.69" x2="130.305" y2="677.615" gradientUnits="userSpaceOnUse">
<stop stop-color="#302624" stop-opacity="0.5"/>
<stop offset="0.9947" stop-color="#302624" stop-opacity="0"/>
</linearGradient>
<linearGradient id="paint7_linear_311_67" x1="636.667" y1="547.324" x2="639.231" y2="677.247" gradientUnits="userSpaceOnUse">
<stop stop-color="#302624" stop-opacity="0.5"/>
<stop offset="0.9947" stop-color="#302624" stop-opacity="0"/>
</linearGradient>
<linearGradient id="paint8_linear_311_67" x1="665.968" y1="546.746" x2="668.532" y2="676.669" gradientUnits="userSpaceOnUse">
<stop stop-color="#302624" stop-opacity="0.5"/>
<stop offset="0.9947" stop-color="#302624" stop-opacity="0"/>
</linearGradient>
<linearGradient id="paint9_linear_311_67" x1="618.131" y1="547.69" x2="620.695" y2="677.615" gradientUnits="userSpaceOnUse">
<stop stop-color="#302624" stop-opacity="0.5"/>
<stop offset="0.9947" stop-color="#302624" stop-opacity="0"/>
</linearGradient>
<clipPath id="clip0_311_67">
<rect width="751" height="751" fill="white"/>
</clipPath>
</defs>
</svg>
